<?xml version="1.0" encoding="UTF-8"?>
<svg id="a" data-name="Layer 1" xmlns="http://www.w3.org/2000/svg" width="3.264in" height="2.917in" viewBox="0 0 235 210">
  <path d="M61.737,115.905c1.206,5.631,2.037,10.508,3.326,15.26,1.47,5.419,5.034,8.9,10.768,9.672,2.705,.365,5.451,.595,8.178,.597,35.661,.039,71.322,.025,106.982,.027,1.543,0,3.426-.534,4.553,.156,1.932,1.183,4.562,3.03,4.725,4.798,.169,1.84-1.854,4.453-3.635,5.723-1.434,1.022-3.937,.708-5.965,.71-36.861,.033-73.722,.029-110.583,.022-15.18-.003-23.579-6.647-26.68-21.597-7.264-35.019-14.39-70.067-21.512-105.116-1.527-7.513-3.68-9.47-11.447-9.609-3.771-.068-7.655,.501-11.27-.257-1.922-.403-4.545-2.902-4.726-4.673-.188-1.836,1.978-5.456,3.484-5.668,8.766-1.233,17.753-2.352,26.021,2.214,2.014,1.112,4.172,2.913,5.055,4.927,1.896,4.328,5.057,4.616,9.074,4.609,52.634-.093,105.268-.064,157.902-.053,2.053,0,4.124-.021,6.156,.224,8.797,1.059,13.092,6.783,11.058,15.377-3.818,16.137-7.929,32.204-11.95,48.293-1.369,5.478-2.682,10.976-4.283,16.388-3.226,10.907-11.912,17.347-23.245,17.353-38.233,.02-76.465-.003-114.698,.032-2.281,.002-4.561,.362-7.288,.592ZM212.222,29.874H44.428c.303,2.136,.455,3.831,.792,5.488,4.283,21.092,8.699,42.158,12.801,63.285,.754,3.884,2.015,5.345,6.196,5.327,39.399-.165,78.798-.087,118.198-.11,7.706-.005,12.099-3.404,14.062-10.844,1.526-5.785,2.918-11.605,4.364-17.411,3.752-15.068,7.5-30.136,11.382-45.736Z"/>
  <path d="M98.715,181.143c-.004,11.552-9.673,20.927-21.511,20.856-11.337-.068-20.909-10.109-20.732-21.748,.17-11.142,9.892-20.549,21.371-20.678,11.316-.127,20.875,9.752,20.871,21.57Zm-21.075-9.711c-5.429-.022-9.693,4.25-9.67,9.688,.022,5.269,4.018,9.049,9.608,9.088,5.708,.04,9.488-3.798,9.505-9.65,.016-5.451-3.763-9.103-9.443-9.125Z"/>
  <path d="M197.564,181.331c-.157,11.352-10.305,20.983-21.769,20.66-11.511-.325-20.801-10.221-20.576-21.919,.213-11.071,10.276-20.639,21.547-20.485,11.347,.155,20.958,10.203,20.799,21.745Zm-20.683,8.878c5.392-.078,9.002-3.94,8.965-9.591-.036-5.517-4.2-9.34-10.004-9.184-5.359,.144-9.217,4.208-9.121,9.61,.094,5.282,4.489,9.247,10.159,9.166Z"/>
</svg>